<?xml version="1.0" encoding="UTF-8"?>
<svg id="Layer_1" xmlns="http://www.w3.org/2000/svg" version="1.1" viewBox="0 0 1263 721">
  <!-- Generator: Adobe Illustrator 29.1.0, SVG Export Plug-In . SVG Version: 2.1.0 Build 142)  -->
  <defs>
    <style>
      .st0 {
        stroke: #2d73ff;
      }

      .st0, .st1, .st2 {
        fill: none;
        stroke-linecap: round;
        stroke-width: 130px;
      }

      .st1 {
        stroke: #e08517;
      }

      .st2 {
        stroke: #ff1994;
      }
    </style>
  </defs>
  <path class="st2" d="M305,30.8c20.8-3.9,41.6-7.8,73.2-1.8,31.5,6,73.2,21.9,96.1,33.4,22.9,11.5,25.8,18,28.5,24.7,5.3,13.5,7.3,33.3,5,55.5-1,9.7-6.8,15.3-12.3,19.1-10.5,7.4-37.8,7.1-69.8,6.3-16.2-.4-27.6-13.5-39.4-28.8-7.6-14-12.2-35.3-15.2-55.6-1-7.7-1-9.9-1-12.3"/>
  <path class="st0" d="M436,124.1c23.8,43.5,55.2,77.8,62.7,76.4,21.7-4.2,33.2-19.8,44-34.8,11.8-16.3,11.5-59.3,5-84.9-21.3-11.5-42.4-17.8-51.4-19.2-4.5-.5-8.7-.5-13-.5"/>
  <path class="st1" d="M857.2,294.3c-10,4-19.9,7.9-61.5,12.5-41.6,4.5-114.6,9.4-156.6,9.2-42-.2-50.9-5.8-59.8-13.1-18.5-15-30.7-31.5-41.8-53.6-19.7-39.2-28.8-75.1-30-93.2-1.1-16.1,3-29.7,8.3-41.2,5.5-11.8,15.3-19.4,32.6-28.4,33.1-17.3,60.2-25.4,71.6-24.6,16.3,1.3,38.6,13,60.7,27.7,24.7,16.4,38.9,35.3,67,67.2,18.5,27.4,33.9,56.9,43.6,79,4.4,8.8,7.7,12.7,11.9,18.6"/>
</svg>